<?xml version="1.0" encoding="utf-8"?>
<!-- Generator: Adobe Illustrator 26.0.2, SVG Export Plug-In . SVG Version: 6.00 Build 0)  -->
<svg version="1.1" xmlns="http://www.w3.org/2000/svg" xmlns:xlink="http://www.w3.org/1999/xlink" x="0px" y="0px"
	 viewBox="0 0 140 40" enable-background="new 0 0 140 40" xml:space="preserve">
<g id="guides" display="none">
</g>
<g id="images">
</g>
<g id="Layer_5">
	<path fill="#FFFFFF" d="M103.5695,14.5805c1.4483,3.3978,2.8408,6.6843,4.3726,10.2492c1.5318-3.5649,2.9244-6.8514,4.3448-10.2214
		c1.8382-0.0557,3.6485-0.0279,5.5702-0.0279c-0.4178,0.9469-1.309,0.557-1.5597,1.0026c-0.4735,0.557-0.4178,1.1419-0.4178,1.6989
		c0,3.1193,0,6.2108,0,9.3301c0,1.5597,0.0557,1.5875,1.5875,2.1167c0.1393,0.0557,0.2228,0.1671,0.2507,0.557
		c-2.3952,0-4.7626,0-7.3806,0c0.5849-0.8355,1.4761-0.4735,1.9217-1.114c0.3064-3.7042,0.195-7.4084,0.195-11.1126
		c-0.1114-0.0279-0.195-0.0557-0.3064-0.0557c-1.7268,4.122-3.4535,8.2161-5.1525,12.2823
		c-0.8355,0.0279-0.8355-0.557-1.0026-0.9469c-1.4483-3.3143-2.8687-6.6286-4.2891-9.9429c-0.1671-0.3899-0.195-0.8912-0.752-1.2533
		c0,3.2586-0.0279,6.4336,0.0279,9.6086c0.0278,1.3369,0.3342,1.6154,1.6989,1.9496c0.195,0.0557,0.3621,0.0836,0.4178,0.3064
		c-0.8077,0.3621-3.0915,0.4456-4.9854,0.1671c0.1671-0.7798,1.0305-0.2507,1.2533-0.6406
		c0.5849-0.4456,0.6684-1.0026,0.6684-1.5597c0-3.3978,0-6.7678,0-10.1657c0-0.3621-0.0557-0.752-0.3342-1.0862
		c-0.3342-0.5292-1.1419-0.2228-1.7825-0.9191C99.8932,14.4134,101.6756,14.6919,103.5695,14.5805z"/>
	<path fill="#8BC63F" d="M47.1149,18.1733c-0.557-0.9191-1.3926-1.504-2.4231-1.6989c-1.2533-0.2507-2.3673,0.1114-3.2586,1.0305
		c-0.3064-0.195-0.1114-0.5849-0.4178-0.7241c-2.3395-0.2228-3.3421-0.1671-4.0663,0.2507
		c0.0557,0.5849,0.8634,0.3621,0.9748,0.9748v12.0317c-0.3064,0.5849-0.9191,0.4178-1.1419,1.1976
		c2.1167,0.1393,4.0941,0.2785,6.2108-0.0836c-0.3621-0.7241-1.0026-0.4735-1.309-0.8634
		c-0.7241-1.2812-0.2785-2.6737-0.4178-4.0106c0.3621-0.0835,0.5292,0.1114,0.6963,0.2507
		c1.7268,0.9469,3.2864,0.6684,4.5954-0.8077C48.2011,23.8828,48.4517,20.29,47.1149,18.1733z M44.4133,24.022
		c-0.1393,0.752-0.3899,1.504-1.2533,1.6432c-0.8355,0.1671-1.3926-0.3064-1.866-1.0862v-5.4031
		c0.1393-0.3899,0.3899-0.6684,0.6684-0.9191c0.9748-0.8355,2.0331-0.557,2.3395,0.6684
		C44.7475,20.5963,44.7754,22.3231,44.4133,24.022z"/>
	<path fill="#FFFFFF" d="M79.5336,14.8312c-2.9801-0.5013-6.0159-0.2228-9.0238-0.195c-0.1671,0-0.195,0.1671-0.2228,0.3899
		c0.4178,0.4735,1.309,0.1949,1.6432,0.9191c0.1393,4.0384,0.1949,8.1047-0.0557,12.1431
		c-0.3342,0.6684-1.3369,0.3064-1.6154,1.0305c1.8939,0.3342,6.4336,0.2228,7.3805-0.2785c-0.6963-0.195-1.3369-0.195-1.8382-0.8077
		c-0.4456-1.5875-0.1393-3.3421-0.2228-5.2082c1.2255-0.1114,2.2838-0.1393,3.3421-0.2785c1.3647-0.1671,2.618-0.6406,3.3978-1.8939
		C83.8784,18.1454,82.5694,15.3325,79.5336,14.8312z M75.6623,21.8775v-6.1273c1.7546-0.752,2.813-0.3064,3.3143,1.309
		c0.1393,0.4456,0.1671,0.9191,0.195,1.3647C79.2829,21.0977,78.4753,21.9053,75.6623,21.8775z"/>
	<path fill="#8BC63F" d="M31.6579,25.4703c0.3621-4.3448,0.2228-6.1551-0.4456-7.2691c-0.9469-0.3899-1.5597,0.1671-2.1724,0.8355
		c0,2.1445,0,4.3169,0,6.4058c0.1114,0.5849,0.8634,0.5013,0.9469,1.2255c-1.7825,0.195-3.5371,0.0278-5.3196,0.0836
		c-0.0836-0.8355,0.8077-0.6406,0.9748-1.1419c0-4.1498,0-8.3275,0-12.2824c-0.2228-0.6684-1.0305-0.4178-1.0305-1.2533
		c1.3647-0.2785,2.7573-0.0557,4.2891-0.1393c0,1.9774,0,3.8435,0,5.8766c0.6127-0.4178,1.0583-0.7798,1.5318-1.0305
		c1.9217-1.0026,4.5119,0,4.4562,2.5345c-0.0279,1.5875,0,3.1472,0,4.7347c0,0.5013-0.0557,1.0305,0.195,1.5318
		c0.1114,0.4178,0.7241,0.3621,0.8355,0.8355c-0.7798,0.4456-3.6763,0.5292-5.1525,0.1393
		C30.7666,25.9159,31.5743,26.0551,31.6579,25.4703z"/>
	<path fill="#8BC63F" d="M23.4414,20.3457c-0.1393-1.6989-0.8912-3.0079-2.5066-3.6764c-1.504-0.6127-2.8687-0.2785-3.9827,0.9469
		c-0.3342-0.2228-0.0278-0.6684-0.4456-0.9191c-1.2255,0-2.5902-0.1393-3.9827,0.2228c0.3621,0.557,1.0862,0.7241,1.1976,1.4204
		c0.1866,3.5259,0.195,7.0547,0,10.5806c-0.0084,0.1783-0.0167,0.3537-0.0279,0.532c0.0557,0.8634-1.0026,0.9191-1.2811,1.5875
		c1.3926,0.4456,5.2082,0.3621,6.0158-0.1114c-0.2507-0.5292-1.0026-0.2507-1.2533-0.752
		c-0.1393-0.3342-0.2785-0.6684-0.4178-1.0026c-0.0251-0.0529-0.0473-0.1086-0.0641-0.1615c-0.0028,0-0.0028,0,0-0.0028
		c-0.2924-0.816-0.0501-1.6739-0.0752-2.5094c0-0.3899,0.2228-0.7241,0.6684-0.2785c2.0053,1.5597,4.4283,0.8355,5.6538-1.6711
		C23.5807,23.2143,23.5528,21.7661,23.4414,20.3457z M20.0993,23.66c-0.0836,0.8912-0.3342,1.8103-1.3647,2.0331
		c-0.9748,0.2228-1.504-0.4735-1.9496-1.1976c-0.0028-0.0195-0.0056-0.0418-0.0084-0.0613
		c0.0028,0.0028,0.0056,0.0028,0.0084,0.0056v-5.2917c0.1393-0.195,0.2507-0.3899,0.3899-0.557
		c0.4735-0.557,1.0305-0.9748,1.8103-0.752c0.7241,0.2228,0.9191,0.8912,1.0305,1.5318
		C20.2664,20.7913,20.2107,22.2396,20.0993,23.66z"/>
	<path fill="#FFFFFF" d="M94.6846,26.2223c-1.5318-3.5649-3.0358-7.1577-4.5676-10.7227c-0.1671-0.4456-0.195-1.0305-0.8355-1.2254
		c-0.4735,0.195-0.5292,0.6963-0.6963,1.114c-1.1698,2.9244-2.3395,5.8487-3.5649,8.7452c-0.752,1.7825-1.0305,3.8435-2.9522,5.0132
		c1.504,0.1393,2.9522,0.2228,4.6511,0.0557c-0.6684-0.6963-1.5875-0.3342-1.8939-1.2533c0.0278-0.9469,0.4735-1.8939,0.8634-2.8408
		h4.8461c0.4178,1.0862,1.2533,2.061,0.9191,3.0915c-0.557,0.6684-1.309,0.2507-1.7268,0.9748h7.0742
		c0.0278-0.0836,0.0835-0.1671,0.0835-0.2785C95.548,28.4782,95.1581,27.3085,94.6846,26.2223z M86.0508,24.0777
		c0.6684-1.6711,1.2533-3.2307,1.866-4.7904h0.2785c0.6406,1.5597,1.2812,3.0915,1.9774,4.7904H86.0508z"/>
	<path fill="#FFFFFF" d="M61.5421,14.6919c2.6737,0,5.1803,0,7.6591,0c0.0557,0.5013-0.2507,0.5292-0.5292,0.557
		c-1.0026,0.0557-1.4204,0.6684-1.4204,1.5597c-0.0279,3.4814,0,6.9628,0,10.4442c0,0.3342,0.1114,0.6406,0.3064,0.9191
		c0.4178,0.557,1.1697,0.4456,1.8382,0.7241c-0.9469,0.5013-6.2387,0.557-7.6312,0.195c0.0279-0.0836,0.0279-0.2228,0.0836-0.2507
		c1.8103-0.7241,1.8103-0.7241,1.8103-2.6737c0-2.8687,0-5.7652,0-8.6339c0-1.8382,0-1.8382-1.7546-2.3952
		C61.7928,15.1097,61.7649,14.9982,61.5421,14.6919z"/>
	<path fill="#8BC63F" d="M55.6656,21.2648c-0.6406-0.4735-1.1976-0.8077-1.6711-1.2255c-0.9469-0.8634-1.3647-1.9496-1.1697-3.2586
		c0.1393-0.8077,0.1671-1.6432,0.2228-2.4788c0.0836-1.2254-0.3621-2.1724-1.504-2.7294c-0.4456-0.2228-1.0026-0.3899-0.6684-1.0862
		c3.0915-0.0557,5.431,1.866,4.8461,4.8182c-0.1393,0.7241-0.2507,1.4483-0.3899,2.2002c-0.2507,1.3926,0.0557,2.0331,1.2533,2.7573
		c0.4178,0.2507,1.0026,0.3342,1.0305,1.0026c-0.1393,0.5849-0.752,0.6406-1.114,0.9469c-0.9469,0.7241-1.4483,1.5875-1.1697,2.8687
		c0.195,0.8355,0.3899,1.6989,0.4456,2.5902c0.0836,1.4761-0.5292,2.5345-1.7268,3.2307c-0.9469,0.5849-2.0053,0.8634-3.0915,0.9191
		c-0.4178-0.6406-0.0557-0.9191,0.4178-1.114c1.2812-0.557,1.6989-1.6154,1.6432-2.9244c-0.0279-0.6963,0.0557-1.4204-0.1114-2.0888
		c-0.4735-1.9217,0.4456-3.0915,1.9496-4.0106C55.1085,21.5433,55.3592,21.404,55.6656,21.2648z"/>
	<path fill="#8BC63F" d="M5.255,21.0141c0.4178,0.2785,0.752,0.4735,1.0305,0.6963c1.4761,1.114,2.0888,2.5623,1.6989,4.4005
		c-0.1393,0.6406-0.1671,1.2812-0.195,1.9217c-0.0836,1.1976,0.4456,2.061,1.4761,2.5902c0.4456,0.2228,1.0026,0.3899,0.6406,1.1697
		c-1.0305,0.0279-1.9496-0.3064-2.8408-0.7798c-1.6432-0.8634-2.3116-2.2281-1.9496-4.0384
		c0.0836-0.4178,0.1671-0.8077,0.2507-1.2254c0.5013-2.618,0.3064-3.0079-1.8939-4.2891c-0.3342-0.6127,0.0557-0.9469,0.5292-1.1976
		c1.5597-0.7798,1.866-2.0331,1.504-3.6206c-0.1114-0.4735-0.1393-1.0026-0.2228-1.504c-0.3899-2.0053,0.195-3.175,2.0053-4.0384
		c0.8355-0.3899,1.6989-0.6963,2.5623-0.7798c0.3064,0.3064,0.2228,0.557,0.1671,0.8634c-0.2228,0.3064-0.6127,0.3621-0.9191,0.557
		c-0.7798,0.5292-1.2812,1.2255-1.2533,2.2002c0,0.6406-0.0836,1.3369,0.0836,1.9496c0.6127,2.2559-0.2507,3.7878-2.2002,4.8461
		C5.6171,20.7913,5.5057,20.8748,5.255,21.0141z"/>
	<path fill="#8BC63F" d="M13.7217,18.3404c0.3342,0.2228,0.2507,0.557,0.2507,0.8634c0,3.1193,0,6.2387,0,9.3858
		c0,0.3064,0.0836,0.6684-0.2507,0.8634C13.7217,25.7488,13.7217,22.0446,13.7217,18.3404z"/>
	<path fill="#8BC63F" d="M16.7854,29.1745c-0.6406-1.0026-0.1671-2.0888-0.2785-3.0636c0.3899-0.3064,0.6406-0.3064,0.7798,0.1114
		c-0.3342-0.0836-0.4735,0.0557-0.4735,0.4178C16.8132,27.4756,16.7854,28.3389,16.7854,29.1745z"/>
	<path fill="#FAFBFA" d="M16.785,19.1481v5.2917c-0.0028-0.0028-0.0056-0.0028-0.0084-0.0056
		C16.5343,22.6462,16.5093,20.9111,16.785,19.1481z"/>
	<path fill="#8BC63F" d="M16.785,19.1481v5.2917c-0.0028-0.0028-0.0056-0.0028-0.0084-0.0056
		c-0.3509-0.195-0.2701-0.5542-0.2701-0.8578v-3.5928C16.4786,19.7051,16.4229,19.343,16.785,19.1481z"/>
</g>
</svg>
